<?xml version="1.0" encoding="UTF-8"?>
<svg id="a" data-name="Layer 1" xmlns="http://www.w3.org/2000/svg" viewBox="0 0 1080 1080">
  <defs>
    <style>
      .b {
        fill: #6137c4;
      }

      .b, .c, .d, .e, .f, .g, .h {
        stroke-width: 0px;
      }

      .c {
        fill: #6d3ecb;
      }

      .d {
        fill: #693bc9;
      }

      .e {
        fill: #884ddc;
      }

      .f {
        fill: #7744d2;
      }

      .g {
        fill: #8049d7;
      }

      .h {
        fill: #fff;
      }
    </style>
  </defs>
  <path class="g" d="M302.16,762.62c-3.76-4.33-7.41-8.75-10.93-13.29,3.52,4.53,7.17,8.96,10.93,13.29Z"/>
  <path class="h" d="M227.62,591.8c-.01-.13-.04-.26-.05-.4.01.13.04.26.05.4Z"/>
  <path class="e" d="M380.05,410.21v-120.26s-.02.01-.03.02v.18c-63.22,37.18-112.25,95.84-136.81,165.96-.14.39-.27.79-.4,1.19-1.95,5.63-3.71,11.34-5.34,17.11-.24.86-.5,1.72-.73,2.59-3.33,12.24-5.91,24.79-7.73,37.59-.23,1.65-.42,3.32-.63,4.98-.6,4.74-1.08,9.52-1.46,14.32-.15,1.84-.31,3.67-.42,5.52-.39,6.32-.64,12.68-.65,19.11,0,.03,0,.06,0,.09,0,5.49.15,10.92.43,16.32.06,1.13.19,2.24.26,3.37.28,4.4.58,8.78,1.05,13.12.01.13.04.26.05.4,1.16,10.67,2.87,21.16,5.17,31.48l147.26-213.07Z"/>
  <path class="e" d="M380.05,289.95v120.26l110.07-159.26c-39.65,5.99-76.81,19.53-110.07,39Z"/>
  <path class="d" d="M718.93,811c40-28.88,72.83-67.02,95.41-111.3l-1.02-52.18-94.39,163.48Z"/>
  <path class="e" d="M694,440.81l23.53,40.76,130.62,75.42c-.01-2.31-.11-4.59-.17-6.89-.1-3.51-.21-7.03-.42-10.51-.16-2.74-.39-5.46-.62-8.18-.35-4-.78-7.97-1.28-11.92-.26-2.1-.5-4.22-.8-6.3-.9-6.12-1.94-12.19-3.19-18.18-.12-.56-.26-1.1-.38-1.66-1.23-5.74-2.63-11.41-4.17-17.02-.3-1.12-.63-2.24-.95-3.36-1.64-5.71-3.4-11.36-5.35-16.93-.09-.27-.18-.55-.28-.82-24.68-69.78-73.55-128.05-136.46-164.89v-.32s-.05-.03-.07-.04v150.85Z"/>
  <path class="e" d="M584.45,251.02l109.55,189.79v-150.85c-33.11-19.39-70.09-32.91-109.55-38.94Z"/>
  <path class="e" d="M848.2,558.61c0-.54-.04-1.08-.04-1.62l-130.62-75.42,95.79,165.95,34.55-75.89c.18-4.33.33-8.66.33-13.03Z"/>
  <path class="b" d="M813.32,647.52l1.02,52.18c8.46-16.59,15.49-34.03,20.89-52.18h-21.91Z"/>
  <path class="f" d="M813.32,647.52l1.02,52.18c8.46-16.59,15.49-34.03,20.89-52.18h-21.91Z"/>
  <polygon class="c" points="694 467.99 717.53 481.57 694 440.81 694 467.99"/>
  <path class="c" d="M537.03,558.61h-156.98v-148.4l-147.26,213.07v.18c8.38,40.28,24.78,77.53,47.24,110.51l192.7-31.24-14.17-8.18,78.48-135.94Z"/>
  <path class="c" d="M537.03,558.61l78.48-135.94,78.5,45.32v-27.18l-109.55-189.79c-15.47-2.37-31.31-3.59-47.44-3.59s-31.6,1.21-46.9,3.52l-110.07,159.26v148.4h156.98Z"/>
  <polygon class="c" points="717.53 481.57 694 467.99 694 558.61 537.03 558.61 458.55 694.55 472.72 702.73 813.32 647.52 717.53 481.57"/>
  <polygon class="c" points="537.03 558.61 694 558.61 694 467.99 615.5 422.67 537.03 558.61"/>
  <path class="e" d="M813.32,647.52h21.91c7.21-24.2,11.55-49.62,12.63-75.89l-34.55,75.89Z"/>
  <path class="g" d="M291.23,749.33c-.14-.18-.28-.35-.42-.53.14.18.28.35.42.53Z"/>
  <path class="g" d="M303.23,763.86c-.36-.41-.71-.83-1.07-1.24.36.41.71.83,1.07,1.24Z"/>
  <path class="g" d="M691.08,828.83c-33.52,19.12-70.86,32.28-110.68,37.9-1.69.23-3.37.45-4.95.56-4.61.56-9.34,1.12-13.95,1.46-1.91.11-3.71.34-5.62.45-6.07.34-12.15.56-18.22.56h-1.13c-5.96,0-11.81-.23-17.66-.56-1.91-.11-3.82-.34-5.74-.45-4.16-.34-8.32-.67-12.49-1.13-2.02-.23-4.16-.56-6.19-.79-4.16-.56-8.21-1.24-12.37-2.02-1.8-.23-3.49-.56-5.29-.9-5.62-1.12-11.25-2.36-16.87-3.71,0-.11-.11-.11-.22-.11-5.85-1.46-11.59-3.15-17.21-4.95-1.35-.45-2.59-.9-3.94-1.35-4.27-1.46-8.66-2.92-12.82-4.61-1.57-.56-3.04-1.12-4.61-1.8-4.16-1.69-8.32-3.49-12.37-5.29-1.24-.56-2.47-1.12-3.71-1.69-10.8-5.06-21.26-10.69-31.27-16.87-.56-.34-1.13-.79-1.8-1.13-4.39-2.81-8.66-5.62-12.82-8.55-1.01-.67-2.02-1.35-2.92-2.14-4.05-2.81-7.99-5.74-11.81-8.89-.79-.56-1.57-1.12-2.25-1.69-14.06-11.36-27.11-23.73-38.92-37.34-.34-.34-.79-.79-1.12-1.24-3.71-4.27-7.42-8.66-10.91-13.27-.11-.11-.22-.34-.45-.56-3.71-4.84-7.31-9.67-10.8-14.73l192.78-31.27,218.32,126.09Z"/>
  <path class="g" d="M813.34,647.52l-94.37,163.43c-9,6.52-18.22,12.48-27.78,17.88h-.11l-218.32-126.09,340.58-55.23Z"/>
</svg>