<?xml version="1.0" encoding="UTF-8"?>
<svg xmlns="http://www.w3.org/2000/svg" xmlns:xlink="http://www.w3.org/1999/xlink" width="576px" height="576px" viewBox="0 0 576 576" version="1.1">
<g id="surface1">
<path style=" stroke:none;fill-rule:nonzero;fill:rgb(50.196078%,28.627451%,84.313725%);fill-opacity:1;" d="M 161.152344 406.730469 C 159.148438 404.421875 157.199219 402.0625 155.324219 399.644531 C 157.199219 402.058594 159.148438 404.421875 161.152344 406.730469 Z M 161.152344 406.730469 "/>
<path style=" stroke:none;fill-rule:nonzero;fill:rgb(100%,100%,100%);fill-opacity:1;" d="M 121.398438 315.625 C 121.390625 315.558594 121.375 315.488281 121.371094 315.414062 C 121.375 315.484375 121.390625 315.550781 121.398438 315.625 Z M 121.398438 315.625 "/>
<path style=" stroke:none;fill-rule:nonzero;fill:rgb(53.333333%,30.196078%,86.27451%);fill-opacity:1;" d="M 202.691406 218.777344 L 202.691406 154.640625 C 202.691406 154.640625 202.683594 154.644531 202.675781 154.652344 L 202.675781 154.746094 C 168.960938 174.574219 142.8125 205.863281 129.710938 243.257812 C 129.636719 243.464844 129.566406 243.679688 129.5 243.894531 C 128.457031 246.894531 127.519531 249.941406 126.652344 253.019531 C 126.523438 253.476562 126.382812 253.9375 126.261719 254.398438 C 124.484375 260.929688 123.109375 267.621094 122.136719 274.449219 C 122.015625 275.328125 121.914062 276.21875 121.800781 277.105469 C 121.484375 279.632812 121.226562 282.179688 121.023438 284.742188 C 120.945312 285.722656 120.859375 286.699219 120.800781 287.683594 C 120.59375 291.054688 120.457031 294.449219 120.453125 297.878906 C 120.453125 297.894531 120.453125 297.910156 120.453125 297.925781 C 120.453125 300.851562 120.535156 303.75 120.683594 306.628906 C 120.714844 307.230469 120.785156 307.824219 120.820312 308.425781 C 120.96875 310.773438 121.128906 313.109375 121.382812 315.425781 C 121.386719 315.492188 121.402344 315.5625 121.40625 315.636719 C 122.027344 321.328125 122.9375 326.921875 124.164062 332.425781 L 202.703125 218.789062 Z M 202.691406 218.777344 "/>
<path style=" stroke:none;fill-rule:nonzero;fill:rgb(53.333333%,30.196078%,86.27451%);fill-opacity:1;" d="M 202.691406 154.640625 L 202.691406 218.777344 L 261.398438 133.839844 C 240.25 137.035156 220.433594 144.257812 202.691406 154.640625 Z M 202.691406 154.640625 "/>
<path style=" stroke:none;fill-rule:nonzero;fill:rgb(41.176471%,23.137255%,78.823529%);fill-opacity:1;" d="M 383.429688 432.535156 C 404.761719 417.128906 422.273438 396.789062 434.316406 373.171875 L 433.769531 345.34375 Z M 383.429688 432.535156 "/>
<path style=" stroke:none;fill-rule:nonzero;fill:rgb(53.333333%,30.196078%,86.27451%);fill-opacity:1;" d="M 370.132812 235.097656 L 382.683594 256.835938 L 452.347656 297.0625 C 452.339844 295.828125 452.289062 294.613281 452.257812 293.386719 C 452.203125 291.515625 452.144531 289.636719 452.03125 287.78125 C 451.945312 286.320312 451.824219 284.871094 451.703125 283.417969 C 451.515625 281.285156 451.285156 279.167969 451.019531 277.0625 C 450.878906 275.941406 450.753906 274.8125 450.59375 273.703125 C 450.113281 270.4375 449.558594 267.199219 448.890625 264.003906 C 448.828125 263.707031 448.753906 263.417969 448.6875 263.121094 C 448.03125 260.058594 447.285156 257.035156 446.464844 254.042969 C 446.304688 253.445312 446.128906 252.847656 445.957031 252.25 C 445.082031 249.207031 444.144531 246.191406 443.105469 243.222656 C 443.054688 243.078125 443.007812 242.929688 442.953125 242.785156 C 429.792969 205.566406 403.726562 174.492188 370.175781 154.84375 L 370.175781 154.671875 C 370.175781 154.671875 370.148438 154.65625 370.136719 154.652344 L 370.136719 235.105469 Z M 370.132812 235.097656 "/>
<path style=" stroke:none;fill-rule:nonzero;fill:rgb(53.333333%,30.196078%,86.27451%);fill-opacity:1;" d="M 311.707031 133.878906 L 370.132812 235.097656 L 370.132812 154.644531 C 352.476562 144.304688 332.753906 137.09375 311.707031 133.878906 Z M 311.707031 133.878906 "/>
<path style=" stroke:none;fill-rule:nonzero;fill:rgb(53.333333%,30.196078%,86.27451%);fill-opacity:1;" d="M 452.375 297.925781 C 452.375 297.636719 452.351562 297.347656 452.351562 297.0625 L 382.6875 256.835938 L 433.777344 345.34375 L 452.203125 304.871094 C 452.296875 302.558594 452.378906 300.25 452.378906 297.921875 Z M 452.375 297.925781 "/>
<path style=" stroke:none;fill-rule:nonzero;fill:rgb(38.039216%,21.568627%,76.862745%);fill-opacity:1;" d="M 433.769531 345.34375 L 434.316406 373.171875 C 438.828125 364.324219 442.574219 355.023438 445.457031 345.34375 Z M 433.769531 345.34375 "/>
<path style=" stroke:none;fill-rule:nonzero;fill:rgb(46.666667%,26.666667%,82.352941%);fill-opacity:1;" d="M 433.769531 345.34375 L 434.316406 373.171875 C 438.828125 364.324219 442.574219 355.023438 445.457031 345.34375 Z M 433.769531 345.34375 "/>
<path style=" stroke:none;fill-rule:nonzero;fill:rgb(42.745098%,24.313725%,79.607843%);fill-opacity:1;" d="M 370.132812 249.59375 L 382.683594 256.835938 L 370.132812 235.097656 Z M 370.132812 249.59375 "/>
<path style=" stroke:none;fill-rule:nonzero;fill:rgb(42.745098%,24.313725%,79.607843%);fill-opacity:1;" d="M 286.414062 297.925781 L 202.691406 297.925781 L 202.691406 218.777344 L 124.15625 332.414062 L 124.15625 332.511719 C 128.625 353.996094 137.371094 373.863281 149.347656 391.449219 L 252.121094 374.789062 L 244.566406 370.425781 L 286.421875 297.925781 Z M 286.414062 297.925781 "/>
<path style=" stroke:none;fill-rule:nonzero;fill:rgb(42.745098%,24.313725%,79.607843%);fill-opacity:1;" d="M 286.414062 297.925781 L 328.273438 225.425781 L 370.136719 249.59375 L 370.136719 235.097656 L 311.710938 133.878906 C 303.460938 132.613281 295.011719 131.960938 286.410156 131.960938 C 277.808594 131.960938 269.558594 132.609375 261.398438 133.839844 L 202.691406 218.777344 L 202.691406 297.925781 Z M 286.414062 297.925781 "/>
<path style=" stroke:none;fill-rule:nonzero;fill:rgb(42.745098%,24.313725%,79.607843%);fill-opacity:1;" d="M 382.683594 256.835938 L 370.132812 249.59375 L 370.132812 297.925781 L 286.414062 297.925781 L 244.558594 370.425781 L 252.117188 374.789062 L 433.769531 345.34375 Z M 382.683594 256.835938 "/>
<path style=" stroke:none;fill-rule:nonzero;fill:rgb(42.745098%,24.313725%,79.607843%);fill-opacity:1;" d="M 286.414062 297.925781 L 370.132812 297.925781 L 370.132812 249.59375 L 328.265625 225.425781 Z M 286.414062 297.925781 "/>
<path style=" stroke:none;fill-rule:nonzero;fill:rgb(53.333333%,30.196078%,86.27451%);fill-opacity:1;" d="M 433.769531 345.34375 L 445.457031 345.34375 C 449.300781 332.4375 451.617188 318.878906 452.191406 304.871094 L 433.765625 345.34375 Z M 433.769531 345.34375 "/>
<path style=" stroke:none;fill-rule:nonzero;fill:rgb(50.196078%,28.627451%,84.313725%);fill-opacity:1;" d="M 155.324219 399.644531 C 155.246094 399.546875 155.171875 399.457031 155.097656 399.359375 C 155.171875 399.457031 155.246094 399.546875 155.324219 399.644531 Z M 155.324219 399.644531 "/>
<path style=" stroke:none;fill-rule:nonzero;fill:rgb(50.196078%,28.627451%,84.313725%);fill-opacity:1;" d="M 161.722656 407.390625 C 161.53125 407.171875 161.34375 406.949219 161.152344 406.730469 C 161.34375 406.949219 161.53125 407.171875 161.722656 407.390625 Z M 161.722656 407.390625 "/>
<path style=" stroke:none;fill-rule:nonzero;fill:rgb(50.196078%,28.627451%,84.313725%);fill-opacity:1;" d="M 368.574219 442.042969 C 350.699219 452.238281 330.785156 459.257812 309.546875 462.257812 C 308.644531 462.378906 307.75 462.496094 306.90625 462.554688 C 304.449219 462.851562 301.925781 463.152344 299.464844 463.332031 C 298.449219 463.390625 297.488281 463.515625 296.46875 463.574219 C 293.230469 463.753906 289.988281 463.871094 286.753906 463.871094 L 286.148438 463.871094 C 282.96875 463.871094 279.851562 463.75 276.730469 463.574219 C 275.710938 463.515625 274.691406 463.390625 273.667969 463.332031 C 271.449219 463.152344 269.230469 462.976562 267.007812 462.730469 C 265.929688 462.609375 264.789062 462.433594 263.707031 462.308594 C 261.488281 462.011719 259.328125 461.648438 257.109375 461.230469 C 256.148438 461.109375 255.246094 460.933594 254.289062 460.753906 C 251.289062 460.15625 248.289062 459.492188 245.289062 458.773438 C 245.289062 458.714844 245.230469 458.714844 245.171875 458.714844 C 242.054688 457.9375 238.992188 457.035156 235.996094 456.074219 C 235.273438 455.835938 234.613281 455.59375 233.894531 455.355469 C 231.617188 454.574219 229.273438 453.796875 227.054688 452.894531 C 226.21875 452.597656 225.433594 452.296875 224.597656 451.9375 C 222.378906 451.035156 220.160156 450.074219 218 449.113281 C 217.339844 448.816406 216.683594 448.515625 216.019531 448.214844 C 210.261719 445.515625 204.683594 442.511719 199.34375 439.214844 C 199.046875 439.035156 198.742188 438.792969 198.382812 438.613281 C 196.042969 437.113281 193.765625 435.617188 191.546875 434.054688 C 191.007812 433.695312 190.46875 433.332031 189.988281 432.910156 C 187.828125 431.414062 185.726562 429.851562 183.691406 428.171875 C 183.269531 427.871094 182.851562 427.574219 182.492188 427.269531 C 174.992188 421.210938 168.03125 414.613281 161.734375 407.355469 C 161.550781 407.171875 161.3125 406.933594 161.136719 406.691406 C 159.15625 404.414062 157.179688 402.074219 155.316406 399.617188 C 155.257812 399.558594 155.199219 399.433594 155.078125 399.316406 C 153.097656 396.734375 151.179688 394.160156 149.316406 391.460938 L 252.132812 374.785156 L 368.570312 442.03125 Z M 368.574219 442.042969 "/>
<path style=" stroke:none;fill-rule:nonzero;fill:rgb(50.196078%,28.627451%,84.313725%);fill-opacity:1;" d="M 433.78125 345.34375 L 383.449219 432.507812 C 378.652344 435.984375 373.734375 439.164062 368.632812 442.042969 L 368.574219 442.042969 L 252.136719 374.792969 L 433.78125 345.339844 Z M 433.78125 345.34375 "/>
</g>
</svg>
