<?xml version="1.0" encoding="UTF-8"?>
<svg id="a" data-name="Layer 1" xmlns="http://www.w3.org/2000/svg" viewBox="0 0 1080 1080">
  <defs>
    <style>
      .b {
        fill: #4a56d9;
      }

      .b, .c, .d, .e, .f, .g {
        stroke-width: 0px;
      }

      .c {
        fill: #4d59da;
      }

      .d {
        fill: #5360de;
      }

      .e {
        fill: #5c6ae2;
      }

      .f {
        fill: #6878e8;
      }

      .g {
        fill: #6271e5;
      }
    </style>
  </defs>
  <path class="b" d="M650.43,287.38l.16-.09s-.03-.02-.04-.03l-.16.09s.03.02.05.03Z"/>
  <path class="g" d="M341.21,698.63l-144.05-61.18c21.03,80.74,73.79,148.3,144.02,189.47v.28s.02.01.03.02v-128.59Z"/>
  <path class="g" d="M502.66,767.21l-161.45-68.57v128.59c31.79,18.61,67.16,31.73,104.84,38.09l56.61-98.11Z"/>
  <path class="c" d="M197.16,637.45l144.05,61.18v-142.16h86.93l-93-262.96c-1.43.88-2.83,1.82-4.25,2.73-3.17,2.03-6.32,4.09-9.41,6.23-1.92,1.33-3.82,2.69-5.71,4.06-3.11,2.25-6.16,4.57-9.18,6.93-1.6,1.26-3.23,2.49-4.81,3.78-4.43,3.61-8.79,7.31-13.01,11.16-.74.67-1.44,1.39-2.17,2.07-3.58,3.33-7.09,6.73-10.51,10.22-1.38,1.4-2.72,2.83-4.06,4.26-2.81,2.98-5.57,6.01-8.27,9.1-1.27,1.45-2.54,2.89-3.78,4.36-3.3,3.93-6.52,7.94-9.63,12.03-.45.59-.93,1.16-1.38,1.75-3.48,4.65-6.8,9.42-10.03,14.27-1.01,1.52-1.98,3.08-2.96,4.62-2.24,3.5-4.42,7.04-6.52,10.63-1.02,1.75-2.04,3.51-3.03,5.28-2.18,3.89-4.26,7.84-6.27,11.84-.67,1.33-1.39,2.64-2.04,3.98-2.54,5.22-4.92,10.53-7.17,15.91-.66,1.59-1.26,3.22-1.9,4.83-1.58,3.97-3.1,7.97-4.51,12.02-.71,2.01-1.39,4.04-2.06,6.08-1.3,3.97-2.51,7.98-3.65,12.02-.52,1.83-1.07,3.64-1.56,5.49-1.5,5.71-2.87,11.47-4.05,17.31-.26,1.31-.46,2.64-.71,3.95-.89,4.7-1.69,9.43-2.36,14.2-.3,2.08-.54,4.18-.8,6.27-.52,4.28-.94,8.59-1.28,12.92-.16,1.99-.33,3.96-.45,5.96-.36,6.12-.6,12.27-.61,18.47,0,.1,0,.19,0,.29,0,6.31.23,12.56.61,18.77.09,1.49.23,2.97.34,4.45.38,5.04.85,10.05,1.47,15.02.14,1.17.29,2.33.44,3.49,1.71,12.6,4.13,24.96,7.3,37.02v.18Z"/>
  <polygon class="c" points="428.14 556.47 341.21 556.47 341.21 698.63 502.66 767.21 428.14 556.47"/>
  <path class="d" d="M809.34,558.07l-154.18,89.02v60.14l139.81-54.99c2.06-6.47,3.83-13.06,5.46-19.7.52-2.15,1.02-4.31,1.5-6.48,1.1-4.95,2.06-9.95,2.93-14.99.47-2.77.93-5.55,1.32-8.34.75-5.24,1.35-10.53,1.83-15.86.25-2.76.46-5.53.63-8.31.33-5.19.53-10.42.6-15.69.02-1.44.11-2.86.11-4.3,0-.16-.01-.33-.01-.49Z"/>
  <polygon class="d" points="655.16 647.09 576.67 692.41 561.26 665.73 502.66 767.21 655.16 707.23 655.16 647.09"/>
  <path class="d" d="M655.16,556.47v90.62l154.18-89.02c-.12-75.28-26.97-144.28-71.56-198.05l-113.43,196.45h30.82Z"/>
  <polygon class="d" points="655.16 647.09 655.16 556.47 624.35 556.47 561.26 665.73 576.67 692.41 655.16 647.09"/>
  <path class="f" d="M428.14,556.47h70.05l-78.48-135.94,230.67-133.18c-33.6-18.93-71.1-31.86-111.06-37.18-.2-.03-.4-.05-.6-.08-6.43-.84-12.91-1.48-19.46-1.92-.22-.02-.44-.04-.67-.05-6.74-.44-13.53-.67-20.38-.67-7.29,0-14.52.27-21.68.76-.45.03-.91.07-1.36.1-21.53,1.58-42.44,5.34-62.52,11.06-.41.12-.82.23-1.22.35-13.18,3.81-25.98,8.48-38.37,13.91-.77.34-1.54.7-2.31,1.04-5.19,2.32-10.28,4.8-15.31,7.39-1.09.57-2.2,1.11-3.29,1.68-5.38,2.85-10.67,5.86-15.86,9.01-.39.24-.76.49-1.15.73l93,262.96Z"/>
  <polygon class="f" points="561.26 665.73 498.19 556.47 428.14 556.47 502.66 767.21 561.26 665.73"/>
  <path class="f" d="M737.78,360.03c-24.28-29.27-53.85-53.96-87.2-72.74l-.16.09s-.03-.02-.05-.03l-230.67,133.18,78.48,135.94h126.16l113.43-196.45Z"/>
  <polygon class="f" points="624.35 556.47 498.19 556.47 561.26 665.73 624.35 556.47"/>
  <path class="f" d="M794.98,652.24l-139.81,54.99v119.98s.05-.03.07-.04v-.25c65.77-38.68,116.39-100.53,139.74-174.68Z"/>
  <path class="f" d="M655.16,707.23l-152.5,59.98,9.65,102.18c51.96-2.32,100.57-17.42,142.85-42.18v-119.98Z"/>
  <path class="e" d="M446.05,865.31c16.96,2.86,34.36,4.43,52.13,4.43,4.74,0,9.45-.15,14.13-.36l-9.65-102.18-56.61,98.11Z"/>
</svg>